HIERARCHY
ROOT root
{
	OFFSET 0.000000 0.000000 0.000000
	CHANNELS 6 Xposition Yposition Zposition Zrotation Yrotation Xrotation
	JOINT lhip
	{
		OFFSET 0.058581 -0.082280 -0.017664
		CHANNELS 3 Zrotation Yrotation Xrotation
		JOINT lknee
		{
			OFFSET 0.043451 -0.386469 0.008037
			CHANNELS 3 Zrotation Yrotation Xrotation
			JOINT lankle
			{
				OFFSET -0.014790 -0.426874 -0.037428
				CHANNELS 3 Zrotation Yrotation Xrotation
				JOINT ltoe
				{
					OFFSET 0.041054 -0.060286 0.122042
					CHANNELS 3 Zrotation Yrotation Xrotation
					End Site
					{
						OFFSET 0.000000 0.000000 0.000000
					}
				}
			}
		}
	}
	JOINT rhip
	{
		OFFSET -0.060310 -0.090513 -0.013543
		CHANNELS 3 Zrotation Yrotation Xrotation
		JOINT rknee
		{
			OFFSET -0.043257 -0.383688 -0.004843
			CHANNELS 3 Zrotation Yrotation Xrotation
			JOINT rankle
			{
				OFFSET 0.019056 -0.420046 -0.034562
				CHANNELS 3 Zrotation Yrotation Xrotation
				JOINT rtoe
				{
					OFFSET -0.034840 -0.062106 0.130323
					CHANNELS 3 Zrotation Yrotation Xrotation
					End Site
					{
						OFFSET 0.000000 0.000000 0.000000
					}
				}
			}
		}
	}
	JOINT lowerback
	{
		OFFSET 0.004439 0.124404 -0.038385
		CHANNELS 3 Zrotation Yrotation Xrotation
		JOINT upperback
		{
			OFFSET 0.004488 0.137956 0.026820
			CHANNELS 3 Zrotation Yrotation Xrotation
			JOINT chest
			{
				OFFSET -0.002265 0.056032 0.002855
				CHANNELS 3 Zrotation Yrotation Xrotation
				JOINT lowerneck
				{
					OFFSET -0.013390 0.211636 -0.033468
					CHANNELS 3 Zrotation Yrotation Xrotation
					JOINT upperneck
					{
						OFFSET 0.010113 0.088937 0.050410
						CHANNELS 3 Zrotation Yrotation Xrotation
						End Site
						{
							OFFSET 0.000000 0.000000 0.000000
						}
					}
				}
				JOINT lclavicle
				{
					OFFSET 0.071702 0.114000 -0.018898
					CHANNELS 3 Zrotation Yrotation Xrotation
					JOINT lshoulder
					{
						OFFSET 0.122921 0.045205 -0.019046
						CHANNELS 3 Zrotation Yrotation Xrotation
						JOINT lelbow
						{
							OFFSET 0.255332 -0.015649 -0.022946
							CHANNELS 3 Zrotation Yrotation Xrotation
							JOINT lwrist
							{
								OFFSET 0.265709 0.012698 -0.007375
								CHANNELS 3 Zrotation Yrotation Xrotation
								End Site
								{
									OFFSET 0.000000 0.000000 0.000000
								}
							}
						}
					}
				}
				JOINT rclavicle
				{
					OFFSET -0.082954 0.112472 -0.023707
					CHANNELS 3 Zrotation Yrotation Xrotation
					JOINT rshoulder
					{
						OFFSET -0.113228 0.046853 -0.008472
						CHANNELS 3 Zrotation Yrotation Xrotation
						JOINT relbow
						{
							OFFSET -0.260127 -0.014369 -0.031269
							CHANNELS 3 Zrotation Yrotation Xrotation
							JOINT rwrist
							{
								OFFSET -0.269108 0.006794 -0.006027
								CHANNELS 3 Zrotation Yrotation Xrotation
								End Site
								{
									OFFSET 0.000000 0.000000 0.000000
								}
							}
						}
					}
				}
			}
		}
	}
}
MOTION
Frames: 14
Frame Time: 0.033333
0.161406 0.134226 0.997145 159.907266 6.398333 97.552537 20.225959 14.089144 -11.724148 3.845551 17.063793 9.444974 -12.194162 5.881824 -0.987973 0.000000 -0.000000 0.000000 12.146962 7.605789 -22.919451 -0.328499 3.532557 14.643173 4.873270 3.958548 -0.084465 0.000000 -0.000000 0.000000 -8.095219 -0.659069 27.875185 -20.371312 3.100205 11.202508 -4.944692 -0.636642 -11.560108 -9.683184 -0.620655 -12.817929 11.895460 27.988324 -17.984159 -22.652948 -56.931834 4.890332 -53.916878 -41.161379 9.684514 116.015590 -33.105686 -79.634977 47.756758 -22.538856 12.871686 -33.972477 50.448940 -21.038308 9.943501 31.410454 -19.194129 -37.447080 83.402431 -32.475864 2.154203 31.633731 -69.083430 
0.162457 0.135555 0.996850 160.243847 6.586475 97.656725 20.567822 13.578956 -11.849969 3.880009 17.202412 9.586140 -11.938406 5.819805 -1.076308 0.000000 -0.000000 0.000000 12.192500 7.778351 -22.841261 -0.224074 3.073673 14.462107 4.821110 3.974276 -0.146993 0.000000 -0.000000 0.000000 -8.679416 0.036895 27.273503 -20.433257 3.717149 11.696552 -4.805261 -0.597292 -11.876853 -9.142877 -0.260562 -12.550975 12.133225 27.658951 -17.707266 -22.830345 -56.225816 4.851837 -54.327056 -41.219896 10.503536 116.273683 -32.850260 -80.121285 48.947710 -22.544656 11.866009 -33.646310 50.256091 -20.788679 10.082745 32.207600 -18.898974 -37.533700 83.192788 -31.837439 1.679802 31.287611 -69.363118 
0.162984 0.136325 0.996456 160.716787 6.994347 97.571502 21.114821 13.556739 -12.041613 3.960115 17.270295 9.961605 -12.156243 5.508981 -1.058961 0.000000 -0.000000 0.000000 12.579194 7.667758 -22.569582 -0.211921 2.657409 14.276953 4.785937 4.099409 -0.108784 0.000000 -0.000000 0.000000 -8.772889 0.436260 27.551811 -20.745498 3.993528 11.362686 -4.785237 -0.519150 -12.164333 -8.598224 -0.288620 -12.597833 12.955274 27.660624 -16.860466 -22.425679 -55.825373 4.248012 -54.929617 -40.949341 10.739769 116.892939 -32.801795 -80.438433 48.891121 -22.309569 11.440454 -33.927427 50.088188 -21.237899 10.794112 32.892597 -18.735225 -34.967749 83.138325 -29.154031 1.876161 31.400940 -69.150740 
0.163902 0.137583 0.995961 161.454042 7.262021 97.657348 21.429501 13.256119 -12.298906 4.034032 16.931867 10.040399 -12.180298 5.366145 -1.091077 0.000000 -0.000000 0.000000 12.841670 7.343575 -22.446153 -0.238674 2.184595 14.090445 4.892725 4.246481 -0.136963 0.000000 -0.000000 0.000000 -9.306664 1.043804 27.261430 -20.827681 4.279900 11.165442 -4.754032 -0.278692 -12.102383 -7.713517 0.058031 -12.151856 13.333555 27.342779 -16.859250 -22.118966 -55.161176 3.906679 -55.250672 -40.634662 11.131351 117.447497 -32.769384 -80.732146 49.454124 -22.209344 11.433597 -33.560041 50.215046 -20.839228 10.688571 33.672062 -18.948742 -34.872971 83.165650 -28.552871 1.540648 31.060555 -69.382472 
0.164283 0.138415 0.995453 161.835628 7.496775 97.634440 21.666493 13.218091 -12.314724 4.019779 16.600695 9.910171 -12.157174 5.420359 -1.022909 0.000000 -0.000000 0.000000 13.070726 7.309038 -22.296059 -0.256214 1.973438 13.975704 4.881897 4.199003 -0.134017 0.000000 -0.000000 0.000000 -9.561790 1.547842 27.082091 -20.721884 4.723729 11.256823 -4.613766 -0.327282 -12.168468 -7.366340 -0.001506 -11.724320 13.578243 27.266486 -16.974032 -22.580688 -55.027336 4.264127 -54.963803 -40.626388 11.062884 118.018510 -32.600694 -81.238302 50.108599 -22.036927 11.216521 -33.525544 50.367412 -20.951777 10.662272 34.080412 -18.907245 -32.887077 83.256338 -26.549968 0.731853 31.172285 -70.043824 
0.164873 0.139093 0.994993 162.346439 7.704725 97.726091 21.874237 13.107844 -12.538054 4.029072 16.420086 9.930363 -12.262959 5.324702 -0.984727 0.000000 -0.000000 0.000000 13.231010 7.291858 -22.364549 -0.214571 1.817227 14.070654 4.753864 3.889602 -0.315691 0.000000 -0.000000 0.000000 -9.786359 2.118460 26.459616 -20.898275 5.149216 11.528156 -4.744950 0.017592 -12.189481 -6.498071 0.182050 -11.101857 14.091062 26.887532 -16.844502 -22.566937 -55.242720 4.470523 -54.327949 -40.473538 10.956113 118.632903 -32.109001 -81.762177 49.948571 -21.827105 10.891436 -32.876609 50.773466 -20.349147 10.153529 33.971822 -19.332135 -35.242406 83.140491 -28.331855 1.536394 31.133069 -69.472902 
0.165080 0.140025 0.994585 162.882320 7.983309 97.639373 22.202649 12.855702 -12.548838 4.046739 16.344747 9.934518 -12.362952 5.125400 -0.984867 0.000000 -0.000000 0.000000 13.486387 7.114664 -22.218310 -0.304738 1.319875 14.114889 4.853190 4.122142 -0.504927 0.000000 -0.000000 0.000000 -10.279058 2.633994 26.288175 -20.776665 5.551920 11.605750 -4.563246 0.475335 -12.330360 -5.899242 0.342350 -10.955026 14.442080 26.530516 -16.762418 -21.991990 -54.826490 4.054588 -54.834321 -40.548403 11.402548 119.427649 -31.758353 -82.732746 50.169510 -22.193839 9.761819 -32.806211 50.839085 -20.263755 10.028477 34.405417 -19.623954 -33.367228 83.021328 -26.066039 1.301686 31.530132 -69.082717 
0.165205 0.141282 0.994225 163.589594 8.274781 97.514505 22.535278 12.587144 -12.642773 4.108583 16.089970 10.126600 -12.454406 4.946921 -1.084879 0.000000 -0.000000 0.000000 13.746629 7.042379 -21.790140 -0.339144 1.101678 13.814052 4.752293 3.829284 -0.644146 0.000000 -0.000000 0.000000 -10.677250 3.092681 26.160804 -20.570888 5.834552 11.659032 -4.388080 0.918557 -12.327199 -5.342201 0.376079 -10.732823 14.728161 26.250138 -16.726566 -21.528310 -54.528820 3.515092 -55.345398 -40.595554 11.441890 119.321267 -31.623173 -81.660400 50.359052 -22.968133 11.353219 -32.788636 50.971974 -20.223785 9.927764 34.803299 -19.915079 -32.017206 83.093781 -24.643421 1.339429 30.888618 -69.371397 
0.165189 0.142837 0.994317 164.388608 8.482483 97.437285 22.734678 12.200023 -12.791482 4.126319 15.690507 10.241026 -12.364403 4.886697 -1.140931 0.000000 -0.000000 0.000000 13.890291 6.758532 -21.478931 -0.426312 0.516524 13.648769 4.742215 4.013868 -0.720221 0.000000 -0.000000 0.000000 -10.610433 3.604593 26.668050 -20.678297 6.045624 10.796759 -4.287001 0.765302 -11.843204 -4.968085 0.271290 -11.258952 15.403013 25.761269 -16.120226 -20.625383 -53.722030 2.407690 -56.345538 -40.631042 11.835873 120.109207 -31.512688 -81.990714 50.470771 -22.291874 10.646305 -33.416920 50.540612 -20.849794 11.137900 36.182070 -19.665272 -32.109926 82.589615 -24.031076 1.565175 30.581185 -69.019278 
0.164690 0.144696 0.994670 165.389906 8.802233 97.322788 23.040842 11.973987 -13.106858 4.177274 15.192641 10.680297 -12.228974 4.544876 -1.365926 0.000000 -0.000000 0.000000 14.111505 6.259722 -21.073297 -0.456970 -0.103343 13.448504 4.646360 4.191897 -0.913938 0.000000 -0.000000 0.000000 -10.641966 4.111414 27.021978 -20.775419 6.291509 10.209877 -4.120581 1.010560 -11.639822 -4.561157 0.194892 -11.367272 15.921402 25.421932 -15.768675 -19.795598 -52.851948 1.388933 -57.480173 -40.263150 12.222856 120.995779 -31.459859 -81.900912 50.004306 -21.128373 10.126970 -33.577642 50.385433 -21.078616 11.787422 37.175509 -19.807298 -30.337263 82.419343 -21.598158 2.106413 30.459849 -68.544799 
0.164660 0.145839 0.995140 166.090499 9.031827 97.234856 23.387398 11.791671 -13.285825 4.068903 14.990164 11.017870 -12.267322 4.218313 -1.558022 0.000000 -0.000000 0.000000 14.216521 6.176970 -20.774123 -0.420356 -0.376986 13.307546 4.592737 3.979515 -1.016793 0.000000 -0.000000 0.000000 -10.872188 4.632056 26.921648 -20.670288 6.644363 10.120910 -3.985652 1.195020 -11.521891 -4.052322 0.154633 -11.305229 16.199518 25.199891 -15.395944 -19.512018 -52.344993 0.996092 -57.833949 -40.248178 12.156513 121.430694 -31.290138 -82.001512 49.171802 -20.857901 10.261477 -33.714076 50.371927 -21.194333 12.197118 37.897332 -19.801684 -30.476658 82.027289 -21.509453 2.561545 30.418307 -68.086541 
0.163406 0.147322 0.995027 167.187916 9.242280 97.155516 23.535588 11.358176 -13.711035 4.140731 14.490351 11.432268 -12.268825 3.963535 -1.776664 0.000000 -0.000000 0.000000 14.219368 5.798701 -20.514076 -0.343421 -0.946929 13.198027 4.473994 3.894825 -1.248111 0.000000 -0.000000 0.000000 -10.780008 4.841420 27.095513 -20.617808 6.769146 10.218289 -3.938147 1.388809 -11.646799 -3.632415 0.107009 -10.987595 16.457031 25.038391 -15.145677 -19.471667 -52.024247 0.842138 -57.918846 -40.057165 12.027351 121.907645 -31.125613 -82.341364 49.003619 -20.571279 9.686157 -33.769100 50.604666 -21.142579 12.284880 38.233421 -19.944531 -30.946647 81.965039 -21.604276 2.729844 30.210610 -67.740256 
0.161508 0.148112 0.994642 168.155345 9.328029 97.260441 23.418950 10.716840 -14.287559 4.308483 14.285409 11.651804 -12.150505 3.942270 -1.906873 0.000000 -0.000000 0.000000 14.053811 5.601589 -20.643222 -0.392140 -1.620696 13.280390 4.581300 3.903145 -1.402730 0.000000 -0.000000 0.000000 -10.688700 5.072105 27.403862 -20.745174 6.852280 9.702691 -3.930468 1.664551 -11.393158 -3.220694 -0.007547 -10.824357 16.762852 24.537154 -15.045425 -18.813382 -50.832734 0.312208 -58.960952 -40.378162 12.889874 121.980388 -31.456918 -83.357313 49.664642 -20.628046 8.954570 -33.465713 50.210425 -20.828291 12.538600 39.156436 -19.814313 -31.068951 81.747819 -21.775323 2.805546 29.905007 -66.876151 
0.160930 0.149195 0.994981 168.940807 9.550749 97.157025 23.638656 10.499053 -14.480158 4.222641 13.770320 11.933250 -12.112674 3.840649 -2.215857 0.000000 -0.000000 0.000000 14.224733 5.359922 -20.305579 -0.435485 -1.938614 13.154662 4.479936 3.711782 -1.618246 0.000000 -0.000000 0.000000 -10.848037 5.435022 27.578881 -20.738596 6.980825 9.265691 -3.841139 1.964712 -11.214916 -2.787703 -0.153988 -10.696673 17.167367 24.284413 -14.546587 -18.752122 -50.675898 0.070971 -59.031667 -40.222044 12.732825 122.455235 -31.136971 -83.341542 48.841731 -19.722991 8.367142 -33.380683 50.442544 -20.737061 12.636408 39.545901 -20.112186 -30.787565 81.605372 -20.947808 2.842059 29.631731 -66.472492 
